<?xml version="1.0" encoding="utf-8"?>
<!-- Svg Vector Icons : http://www.onlinewebfonts.com/icon -->
<!DOCTYPE svg PUBLIC "-//W3C//DTD SVG 1.1//EN" "http://www.w3.org/Graphics/SVG/1.1/DTD/svg11.dtd">
<svg version="1.1" xmlns="http://www.w3.org/2000/svg" xmlns:xlink="http://www.w3.org/1999/xlink" x="0px" y="0px" viewBox="0 0 1000 1000" enable-background="new 0 0 1000 1000" xml:space="preserve">
<metadata> Svg Vector Icons : http://www.onlinewebfonts.com/icon </metadata>
<g><path d="M898.2,745V442.7H530.7V255h91.8V10h-245v245h91.9v187.7H101.9V745H10v245h245V745h-91.8V503.9h306.3V745h-91.9v245h245V745h-91.8V503.9h306.3V745H745v245h245V745H898.2z M552.5,920h-105V815h105V920z M185,919.9H80V815h105V919.9z M552.5,185h-105V80h105V185z M923.5,920h-105V815h105V920z"/></g>
</svg>